ffmpeg started on 2016-12-12 at 01:18:05
Report written to "Output/theora/results/ffmpeg/Tcrowd_run_2160p501500k.log"
Command line:
Tools/ffmpeg/ffmpeg -i Output/theora/encoded/crowd_run_2160p501500k.mkv -c:v rawvideo -pix_fmt yuv420p Output/theora/transcoded/crowd_run_2160p501500k.yuv
ffmpeg version N-82227-gdb23fde Copyright (c) 2000-2016 the FFmpeg developers
  built with gcc 5.4.0 (Ubuntu 5.4.0-6ubuntu1~16.04.2) 20160609
  configuration: --prefix=/home/jaroslav/ffmpeg_build --pkg-config-flags=--static --extra-cflags=-I/home/jaroslav/ffmpeg_build/include --extra-ldflags=-L/home/jaroslav/ffmpeg_build/lib --bindir=/home/jaroslav/bin --enable-gpl --enable-libass --enable-libfdk-aac --enable-libfreetype --enable-libmp3lame --enable-libopus --enable-libtheora --enable-libvorbis --enable-libvpx --enable-libx264 --enable-libx265 --enable-nvenc --enable-libmfx --enable-libxvid --enable-libgsm --enable-libopencore-amrnb --enable-version3 --enable-nonfree
  libavutil      55. 35.100 / 55. 35.100
  libavcodec     57. 66.101 / 57. 66.101
  libavformat    57. 57.100 / 57. 57.100
  libavdevice    57.  2.100 / 57.  2.100
  libavfilter     6. 66.100 /  6. 66.100
  libswscale      4.  3.100 /  4.  3.100
  libswresample   2.  4.100 /  2.  4.100
  libpostproc    54.  2.100 / 54.  2.100
Input #0, matroska,webm, from 'Output/theora/encoded/crowd_run_2160p501500k.mkv':
  Metadata:
    ENCODER         : Lavf57.57.100
  Duration: 00:00:10.00, start: 0.000000, bitrate: 4355 kb/s
    Stream #0:0: Video: theora, yuv420p(progressive), 3840x2160 [SAR 1:1 DAR 16:9], 50 fps, 50 tbr, 1k tbn, 50 tbc (default)
    Metadata:
      ENCODER         : Lavc57.66.101 libtheora
      DURATION        : 00:00:10.000000000
Output #0, rawvideo, to 'Output/theora/transcoded/crowd_run_2160p501500k.yuv':
  Metadata:
    encoder         : Lavf57.57.100
    Stream #0:0: Video: rawvideo (I420 / 0x30323449), yuv420p, 3840x2160 [SAR 1:1 DAR 16:9], q=2-31, 200 kb/s, 50 fps, 50 tbn, 50 tbc (default)
    Metadata:
      DURATION        : 00:00:10.000000000
      encoder         : Lavc57.66.101 rawvideo
Stream mapping:
  Stream #0:0 -> #0:0 (theora (native) -> rawvideo (native))
Press [q] to stop, [?] for help
frame=   37 fps=0.0 q=-0.0 size=  449550kB time=00:00:00.74 bitrate=4976640.0kbits/s dup=31 drop=0 speed=0.967x    frame=   61 fps= 41 q=-0.0 size=  741150kB time=00:00:01.22 bitrate=4976640.0kbits/s dup=53 drop=0 speed=0.83x    frame=   85 fps= 39 q=-0.0 size= 1032750kB time=00:00:01.70 bitrate=4976640.0kbits/s dup=75 drop=0 speed=0.781x    frame=  109 fps= 38 q=-0.0 size= 1324350kB time=00:00:02.18 bitrate=4976640.0kbits/s dup=97 drop=0 speed=0.755x    frame=  133 fps= 37 q=-0.0 size= 1615950kB time=00:00:02.66 bitrate=4976640.0kbits/s dup=119 drop=0 speed=0.74x    frame=  157 fps= 36 q=-0.0 size= 1907550kB time=00:00:03.14 bitrate=4976640.0kbits/s dup=141 drop=0 speed=0.73x    frame=  181 fps= 36 q=-0.0 size= 2199150kB time=00:00:03.62 bitrate=4976640.0kbits/s dup=163 drop=0 speed=0.722x    frame=  205 fps= 36 q=-0.0 size= 2490750kB time=00:00:04.10 bitrate=4976640.0kbits/s dup=185 drop=0 speed=0.717x    frame=  229 fps= 36 q=-0.0 size= 2782350kB time=00:00:04.58 bitrate=4976640.0kbits/s dup=207 drop=0 speed=0.712x    frame=  253 fps= 35 q=-0.0 size= 3073950kB time=00:00:05.06 bitrate=4976640.0kbits/s dup=229 drop=0 speed=0.708x    frame=  277 fps= 35 q=-0.0 size= 3365550kB time=00:00:05.54 bitrate=4976640.0kbits/s dup=251 drop=0 speed=0.695x    frame=  301 fps= 34 q=-0.0 size= 3657150kB time=00:00:06.02 bitrate=4976640.0kbits/s dup=273 drop=0 speed=0.674x    frame=  325 fps= 33 q=-0.0 size= 3948750kB time=00:00:06.50 bitrate=4976640.0kbits/s dup=295 drop=0 speed=0.661x    frame=  337 fps= 33 q=-0.0 size= 4094550kB time=00:00:06.74 bitrate=4976640.0kbits/s dup=306 drop=0 speed=0.651x    frame=  361 fps= 32 q=-0.0 size= 4386150kB time=00:00:07.22 bitrate=4976640.0kbits/s dup=328 drop=0 speed=0.634x    frame=  373 fps= 29 q=-0.0 size= 4531950kB time=00:00:07.46 bitrate=4976640.0kbits/s dup=339 drop=0 speed=0.587x    frame=  385 fps= 29 q=-0.0 size= 4677750kB time=00:00:07.70 bitrate=4976640.0kbits/s dup=350 drop=0 speed=0.578x    frame=  397 fps= 28 q=-0.0 size= 4823550kB time=00:00:07.94 bitrate=4976640.0kbits/s dup=361 drop=0 speed=0.553x    frame=  409 fps= 27 q=-0.0 size= 4969350kB time=00:00:08.18 bitrate=4976640.0kbits/s dup=372 drop=0 speed=0.544x    frame=  433 fps= 27 q=-0.0 size= 5260950kB time=00:00:08.66 bitrate=4976640.0kbits/s dup=394 drop=0 speed=0.544x    frame=  457 fps= 27 q=-0.0 size= 5552550kB time=00:00:09.14 bitrate=4976640.0kbits/s dup=416 drop=0 speed=0.544x    frame=  469 fps= 27 q=-0.0 size= 5698350kB time=00:00:09.38 bitrate=4976640.0kbits/s dup=427 drop=0 speed=0.533x    frame=  493 fps= 27 q=-0.0 size= 5989950kB time=00:00:09.86 bitrate=4976640.0kbits/s dup=449 drop=0 speed=0.535x    frame=  503 fps= 26 q=-0.0 Lsize= 6111450kB time=00:00:10.06 bitrate=4976640.0kbits/s dup=459 drop=0 speed=0.527x    
video:6111450kB audio:0kB subtitle:0kB other streams:0kB global headers:0kB muxing overhead: 0.000000%
